<svg width="180" height="45" viewBox="0 0 180 45" fill="none" xmlns="http://www.w3.org/2000/svg">
<path d="M7.5 0H0V37.6339H7.5V0Z" fill="white"/>
<path fill-rule="evenodd" clip-rule="evenodd" d="M43.3929 11.7856C44.7322 11.7856 47.1429 11.7856 49.0179 13.1249C50.2232 13.9285 51.4286 15.4017 51.4286 18.0803C51.4286 20.6249 50.2233 21.9642 49.4197 22.7678C48.75 23.3035 47.8125 23.7053 46.875 23.9731V24.1071C48.0804 24.3749 49.1518 24.9106 49.8215 25.4464C51.1608 26.5178 52.2322 28.2589 52.2322 30.8035C52.2322 33.3481 50.8929 35.2231 49.6875 36.1606C47.6786 37.7678 45.2679 37.7678 43.259 37.7678H33.4822V11.7856H43.3929ZM36.6965 22.7678H42.1875C43.6607 22.7678 45.4018 22.6339 46.7411 21.5624C47.9465 20.6249 48.2143 19.4196 48.2143 18.4821C48.2143 17.0089 47.6786 16.0714 46.7411 15.4017C45.5358 14.5981 44.1965 14.5981 42.7232 14.5981H36.6965V22.7678ZM36.6965 34.8214H43.125C43.9286 34.8214 45.8036 34.8214 47.1429 33.7499C47.5447 33.4821 48.75 32.4106 48.75 30.1339C48.75 28.5267 48.2143 27.4553 47.4108 26.7856C46.0715 25.4464 44.1965 25.4464 42.7232 25.4464H36.6965V34.8214Z" fill="white"/>
<path fill-rule="evenodd" clip-rule="evenodd" d="M72.3214 32.4106C71.7857 34.0177 70.8482 35.4909 69.2411 36.5624C67.7679 37.6338 66.1607 38.0356 64.2857 38.0356C61.6071 38.0356 59.4643 37.0981 57.7232 35.2231C55.9821 33.3481 55.3125 30.8034 55.3125 28.1249C55.3125 23.0356 58.125 17.9463 64.2857 17.9463C71.5179 17.9463 72.5893 24.6427 72.5893 27.7231V28.3927H58.6607C58.6607 29.732 58.7946 31.0713 59.3304 32.1427C60.2679 34.4195 62.0089 35.4909 64.4196 35.4909C66.5625 35.4909 67.7679 34.5534 68.4375 33.8838C68.9732 33.3481 69.375 32.5445 69.6429 31.8749L72.3214 32.4106ZM69.2411 26.1159C69.2411 24.9106 68.8393 23.5713 68.3036 22.6338C67.7679 21.6963 66.4286 20.357 64.1518 20.357C62.2768 20.357 60.8036 21.2945 60 22.3659C59.1964 23.4374 58.6607 24.7766 58.6607 26.1159H69.2411Z" fill="white"/>
<path d="M79.4196 11.7856H76.6071V37.7678H79.4196V11.7856Z" fill="white"/>
<path d="M87.5894 11.7856H84.7769V37.7678H87.5894V11.7856Z" fill="white"/>
<path fill-rule="evenodd" clip-rule="evenodd" d="M108.616 32.4106C108.08 34.0177 107.143 35.4909 105.402 36.5624C103.929 37.6338 102.321 38.0356 100.446 38.0356C97.7679 38.0356 95.625 37.0981 93.884 35.2231C92.1429 33.3481 91.4733 30.8034 91.4733 28.1249C91.4733 23.0356 94.2858 17.9463 100.446 17.9463C107.679 17.9463 108.75 24.6427 108.75 27.7231V28.3927H94.9554C94.9554 29.732 95.0893 31.0713 95.6251 32.1427C96.5626 34.4195 98.3036 35.4909 100.714 35.4909C102.857 35.4909 104.063 34.5534 104.732 33.8838C105.268 33.3481 105.67 32.5445 105.938 31.8749L108.616 32.4106ZM105.67 26.1159C105.67 24.9106 105.268 23.5713 104.732 22.6338C104.196 21.6963 102.857 20.357 100.58 20.357C98.7054 20.357 97.2322 21.2945 96.4286 22.3659C95.625 23.4374 95.0893 24.7766 95.0893 26.1159H105.67Z" fill="white"/>
<path fill-rule="evenodd" clip-rule="evenodd" d="M115.714 18.3481V22.9016C116.116 21.4284 116.92 19.9552 117.857 19.1516C118.661 18.482 119.866 17.9463 121.205 17.9463C121.607 17.9463 121.875 17.9463 122.277 18.0802V20.8927C122.143 20.8927 121.875 20.8927 121.607 20.8927C120.536 20.8927 118.661 21.1606 117.054 23.0356C115.982 24.3749 115.714 25.8481 115.714 27.9909V37.6338H112.902V18.3481H115.714Z" fill="white"/>
<path fill-rule="evenodd" clip-rule="evenodd" d="M124.687 23.3038C125.491 19.152 128.705 18.0806 132.857 18.0806C134.196 18.0806 136.607 18.0806 138.348 19.4199C140.357 21.027 140.491 23.7056 140.491 26.2502V33.6163C140.491 34.6877 140.625 36.027 141.027 37.6341H137.946C137.679 36.2949 137.679 34.9556 137.545 34.0181C137.009 35.0895 135.402 38.0359 130.848 38.0359C128.437 38.0359 126.83 37.2324 125.893 36.2949C125.089 35.4913 124.152 34.2859 124.152 32.277C124.152 29.5984 125.625 28.1252 126.696 27.4556C129.107 25.8484 132.054 25.8484 135 25.8484H137.545V25.0449C137.545 23.9734 137.411 22.7681 136.741 21.8306C135.804 20.4913 134.062 20.4913 132.723 20.4913C131.116 20.4913 127.768 20.7591 127.366 23.8395L124.687 23.3038ZM135.134 28.1252C132.054 28.1252 130.312 28.527 129.241 29.0627C127.634 29.8663 127.232 31.3395 127.232 32.277C127.232 33.0806 127.5 34.152 128.571 34.8216C129.107 35.2234 130.045 35.4913 131.384 35.4913C133.259 35.4913 135 34.5538 135.937 33.3484C136.875 32.1431 137.411 30.402 137.411 28.9288V28.1252H135.134Z" fill="white"/>
<path fill-rule="evenodd" clip-rule="evenodd" d="M159.107 18.2141C159.643 17.8123 162.455 16.6069 162.455 16.6069V13.7944C162.455 13.7944 159.375 15.2676 157.902 16.0712C157.366 16.3391 156.964 16.7409 156.696 17.1426C156.429 17.6784 156.295 17.9462 156.295 18.348C156.295 18.4819 156.295 18.7498 156.295 18.8837C155.625 18.6159 154.286 18.0801 152.411 18.0801C149.598 18.0801 147.857 19.1516 147.054 19.9551C145.848 21.1605 145.045 22.7676 145.045 24.5087C145.045 25.1784 145.045 27.723 147.589 29.4641C145.714 29.9998 144.911 31.473 144.911 32.9462C144.911 34.8212 146.25 35.7587 146.786 36.0266C145.045 36.5623 143.839 37.9016 143.839 39.9105C143.839 43.1248 147.054 44.8659 152.813 44.8659C154.152 44.8659 157.366 44.8659 159.509 43.6605C161.786 42.4551 162.321 40.7141 162.321 39.2409C162.321 37.6337 161.384 35.8926 159.375 35.0891C158.036 34.5534 156.563 34.5534 154.286 34.4194L150.268 34.2855C148.125 34.1516 147.723 33.2141 147.723 32.5444C147.723 32.0087 147.991 31.473 148.393 31.2051C148.795 30.9373 149.464 30.8034 150 30.8034C150.402 30.8034 150.804 30.9373 151.339 30.9373C151.875 31.0712 152.411 31.0712 152.813 31.0712C154.821 31.0712 156.563 30.2676 157.768 29.0623C158.839 27.9909 159.643 26.5176 159.643 24.6426C159.643 23.973 159.643 21.9641 158.036 20.0891C158.036 20.0891 158.036 19.9551 158.036 19.8212C158.036 19.6873 158.036 19.4194 158.17 19.0176C158.304 18.8837 158.705 18.4819 159.107 18.2141ZM148.661 36.9641L153.348 37.2319C156.429 37.3659 159.241 37.4998 159.241 39.7766C159.241 40.4462 158.839 41.6516 156.83 42.1873C155.625 42.5891 153.482 42.723 152.679 42.723C147.589 42.723 146.652 40.7141 146.652 39.5087C146.652 38.0355 147.723 37.3659 148.661 36.9641ZM152.277 28.7944C151.071 28.7944 150 28.3926 149.196 27.723C148.393 27.0534 147.991 25.7141 147.991 24.5087C147.991 23.1694 148.661 21.6962 150 20.8926C150.804 20.3569 151.741 20.3569 152.277 20.3569C153.482 20.3569 154.42 20.7587 155.223 21.5623C156.295 22.6337 156.429 23.973 156.429 24.5087C156.429 25.4462 156.027 28.7944 152.277 28.7944Z" fill="white"/>
<path fill-rule="evenodd" clip-rule="evenodd" d="M179.732 32.4106C179.196 34.0177 178.259 35.4909 176.652 36.5624C175.179 37.6338 173.571 38.0356 171.696 38.0356C169.018 38.0356 166.875 37.0981 165.134 35.2231C163.393 33.3481 162.723 30.8034 162.723 28.1249C162.723 23.0356 165.536 17.9463 171.696 17.9463C178.929 17.9463 180 24.6427 180 27.7231V28.3927H166.071C166.071 29.732 166.205 31.0713 166.741 32.1427C167.679 34.4195 169.42 35.4909 171.83 35.4909C173.973 35.4909 175.179 34.5534 175.848 33.8838C176.384 33.3481 176.786 32.5445 177.054 31.8749L179.732 32.4106ZM176.652 26.1159C176.652 24.9106 176.25 23.5713 175.714 22.6338C175.045 21.6963 173.839 20.357 171.696 20.357C169.821 20.357 168.348 21.2945 167.545 22.3659C166.741 23.4374 166.205 24.7766 166.205 26.1159H176.652Z" fill="white"/>
</svg>
