<svg width="42" height="40" viewBox="0 0 42 40" fill="none" xmlns="http://www.w3.org/2000/svg">
<g clip-path="url(#clip0_20_1455)">
<path d="M23.5632 12.9599V16.3239C23.8239 15.9959 24.0379 15.7152 24.2641 15.4457C25.7883 13.6307 27.7422 12.6239 30.0878 12.3789C32.4119 12.1358 34.648 12.4288 36.712 13.5956C38.9413 14.8561 40.2958 16.8138 41.0736 19.2091C41.5937 20.8117 41.8083 22.466 41.8113 24.1443C41.8224 29.3442 41.8163 34.544 41.8163 39.7433C41.8163 39.8233 41.8095 39.9027 41.8052 39.9993H32.6074V39.598C32.6074 34.9108 32.6061 30.2243 32.6086 25.5371C32.6092 24.465 32.5145 23.407 32.1592 22.3885C31.3808 20.1581 29.6642 19.4565 27.6033 19.6737C25.4323 19.9027 23.5608 22.037 23.562 24.4188C23.5626 25.9266 23.5577 27.4339 23.5571 28.9417C23.5565 32.5002 23.5571 36.0593 23.5571 39.6177C23.5571 39.7384 23.5571 39.859 23.5571 39.9981H14.3752V12.9599H23.5632Z" fill="white"/>
<path d="M9.72282 12.9497V39.9947H0.563721V12.9497H9.72282Z" fill="white"/>
<path d="M5.1239 9.62968C3.43005 9.5589 1.97537 9.02224 0.928929 7.64365C-0.872518 5.27051 -0.142102 0.980265 3.89363 0.146342C5.27392 -0.139223 6.629 -0.0241356 7.89371 0.644849C9.83595 1.67264 10.4668 3.7079 10.3001 5.2385C10.0708 7.34208 8.78213 8.85668 6.81284 9.35704C6.26195 9.49674 5.68709 9.54167 5.12329 9.63029L5.1239 9.62968Z" fill="white"/>
</g>
<defs>
<clipPath id="clip0_20_1455">
<rect width="41.8182" height="40" fill="white"/>
</clipPath>
</defs>
</svg>
