<svg width="48" height="40" viewBox="0 0 48 40" fill="none" xmlns="http://www.w3.org/2000/svg">
<path d="M37.9212 39.9998C37.6953 39.9517 37.4642 39.9204 37.2446 39.8522C36.6593 39.67 36.1356 39.3737 35.6461 39.0024C33.9574 37.7213 32.2591 36.4524 30.5646 35.1789C28.8824 33.9147 27.2 32.6512 25.5199 31.3842C25.4364 31.3214 25.3913 31.3288 25.32 31.397C23.6229 33.013 21.924 34.6269 20.2253 36.241C19.8973 36.5527 19.5772 36.8734 19.2388 37.1729C18.7411 37.6134 18.1742 37.7844 17.5333 37.5171C17.0891 37.3319 16.8116 36.9718 16.6017 36.5545C16.5845 36.5202 16.5903 36.4712 16.5938 36.4297C16.6768 35.4096 16.7616 34.3895 16.8446 33.3692C16.9176 32.4721 16.9885 31.575 17.0615 30.6779C17.1347 29.7771 17.2086 28.8763 17.2863 27.9757C17.2907 27.9246 17.3209 27.8641 17.3588 27.8295C18.7737 26.54 20.1909 25.2533 21.6076 23.9659C23.2078 22.5121 24.8074 21.0581 26.4076 19.6043C28.1451 18.0259 29.8831 16.4479 31.6204 14.8693C33.2575 13.3816 34.8939 11.8933 36.5307 10.4051C37.6153 9.41916 38.7013 8.43504 39.7822 7.44511C39.9174 7.3212 40.0444 7.17872 40.1413 7.02394C40.3254 6.73017 40.1996 6.50995 39.8528 6.48675C39.4409 6.45937 39.0583 6.57911 38.7076 6.77171C38.2538 7.02093 37.8182 7.30287 37.3778 7.57552C35.9571 8.45499 34.538 9.33678 33.1182 10.2174C31.4651 11.2431 29.8117 12.2685 28.1586 13.2939C26.6203 14.2479 25.0817 15.2016 23.5434 16.1558C22.1432 17.0241 20.7434 17.8931 19.3431 18.7615C17.8116 19.7115 16.2798 20.6612 14.748 21.6113C13.854 22.1659 12.9607 22.7214 12.0646 23.2725C12.0163 23.3022 11.938 23.318 11.8859 23.3015C10.6693 22.9182 9.45429 22.5295 8.23908 22.142C6.29445 21.5219 4.34983 20.9021 2.4052 20.2823C2.04073 20.1661 1.67487 20.0535 1.31179 19.9328C0.892227 19.7936 0.520317 19.575 0.24766 19.2209C-0.066836 18.8123 -0.0791555 18.3312 0.195593 17.8773C0.469179 17.4253 0.868053 17.1067 1.33573 16.887C1.79318 16.6721 2.26992 16.4976 2.74155 16.314C4.2078 15.7434 5.67569 15.1765 7.14311 14.6089C8.79462 13.9699 10.4464 13.3317 12.0979 12.6927C13.7566 12.0508 15.4148 11.4081 17.0733 10.766C18.5263 10.2037 19.98 9.64239 21.433 9.0799C22.9832 8.47982 24.5332 7.87858 26.0833 7.27827C27.6409 6.67517 29.1988 6.07301 30.7564 5.47037C32.5016 4.79511 34.2467 4.11938 35.9919 3.44435C37.557 2.83894 39.122 2.23375 40.6871 1.62833C41.7868 1.20299 42.8851 0.773465 43.9866 0.353224C44.5354 0.145076 45.1007 -0.00297137 45.6932 4.5271e-05C46.2318 0.00282986 46.7211 0.144844 47.0848 0.572047C47.3926 0.933579 47.5121 1.3703 47.5648 1.83068C47.569 1.86827 47.579 1.9054 47.5865 1.94253V2.73103C47.5799 2.75238 47.5704 2.7735 47.5674 2.79554C47.5223 3.11252 47.4944 3.43298 47.4307 3.74625C47.2194 4.78629 46.9949 5.82355 46.7762 6.86197C46.3499 8.88614 45.9243 10.9105 45.4984 12.9349C45.0723 14.9593 44.6463 16.9835 44.2204 19.0079C43.8327 20.8508 43.445 22.6938 43.0578 24.5369C42.5815 26.8031 42.1059 29.0693 41.6294 31.3355C41.2133 33.3147 40.7979 35.294 40.38 37.2727C40.2582 37.8491 40.0906 38.4107 39.7898 38.9235C39.5244 39.376 39.179 39.7413 38.662 39.9051C38.5272 39.9478 38.3854 39.9689 38.2469 40H37.9217L37.9212 39.9998Z" fill="white"/>
</svg>
